<?xml version="1.0" encoding="UTF-8"?> <svg xmlns="http://www.w3.org/2000/svg" width="30" height="30" viewBox="0 0 30 30" fill="none"> <path d="M6 11.2998V22.406H11.3655C11.8627 22.406 15.2865 22.3052 15.2865 19.1792C15.2865 17.2258 13.9427 16.5621 13.2603 16.3652C13.7622 16.1283 14.7612 15.5655 14.7612 14.0576C14.7612 13.2181 14.6416 11.2998 11.2154 11.2998H6ZM18.2319 12.3316V13.3447H22.378V12.3316H18.2319ZM8.43887 13.1946H10.7277C10.9434 13.1946 12.3973 13.0797 12.3973 14.4703C12.3973 15.6593 11.3468 15.7836 10.9153 15.7836H8.43887V13.1946ZM20.4081 14.264C17.2727 14.264 16.6185 16.9866 16.6185 18.1662C16.6185 21.6674 19.4888 22.0684 20.4081 22.0684C22.8868 22.0684 23.5904 20.4643 23.8788 19.5732H22.0778C22.0074 19.803 21.4821 20.5488 20.4831 20.5488C18.8088 20.5488 18.6634 19.2402 18.6634 18.6539H23.9914C24.0992 16.6278 23.2128 14.264 20.4081 14.264ZM20.3518 15.7836C20.8513 15.7836 21.2547 15.929 21.4962 16.1963C21.7378 16.466 21.916 16.86 21.9652 17.3782H18.6634C18.6728 17.2352 18.7056 17.071 18.7572 16.8904C18.8088 16.7052 18.8885 16.5293 19.0198 16.3652C19.1511 16.2033 19.3341 16.0626 19.5451 15.9524C19.7609 15.8399 20.0282 15.7836 20.3518 15.7836ZM8.43887 17.4533H11.0841C11.6094 17.4533 12.8476 17.5353 12.8476 19.0479C12.8476 20.5136 11.2881 20.5112 11.0466 20.5112H8.43887V17.4533Z" fill="#1769FF"></path> </svg> 