<?xml version="1.0" encoding="UTF-8"?> <svg xmlns="http://www.w3.org/2000/svg" width="16" height="16" viewBox="0 0 16 16" fill="none"> <g clip-path="url(#clip0_76_21625)"> <path d="M13.1667 0.399902L2.83333 0.399902C1.26853 0.399902 0 1.66843 0 3.23324L0 13.1666C0 14.7314 1.26853 15.9999 2.83333 15.9999L13.1667 15.9999C14.7315 15.9999 16 14.7314 16 13.1666L16 3.23324C16 1.66843 14.7315 0.399902 13.1667 0.399902Z" fill="#001E36"></path> <path d="M3.60278 11.3395L3.60278 4.48088C3.60278 4.43089 3.62427 4.40575 3.6672 4.40575C3.78156 4.40575 3.88598 4.40407 4.04346 4.40037C4.20079 4.39686 4.37073 4.39328 4.55329 4.38965C4.73578 4.38612 4.92899 4.38254 5.13292 4.37891C5.33682 4.37539 5.53896 4.3736 5.73933 4.37354C6.28305 4.37354 6.741 4.44151 7.11319 4.57747C7.44892 4.69104 7.7551 4.87804 8.00944 5.12487C8.22504 5.33882 8.39166 5.59699 8.49779 5.88158C8.59821 6.15853 8.64908 6.45101 8.64808 6.74561C8.64808 7.31816 8.51571 7.79043 8.25095 8.16241C7.98444 8.53592 7.60983 8.81875 7.17761 8.97277C6.7268 9.14099 6.22585 9.19803 5.67494 9.19803C5.51746 9.19803 5.40654 9.19624 5.3422 9.19266C5.27781 9.18913 5.18122 9.18734 5.05242 9.18729V11.3287C5.05429 11.3419 5.05308 11.3552 5.04889 11.3678C5.0447 11.3804 5.03763 11.3918 5.02826 11.4012C5.01888 11.4106 5.00746 11.4176 4.99488 11.4218C4.98231 11.426 4.96893 11.4272 4.9558 11.4253H3.67791C3.62778 11.4253 3.60278 11.3968 3.60278 11.3395ZM5.05241 5.69374V7.93073C5.14532 7.93795 5.23118 7.94152 5.31 7.94146H5.6642C5.92481 7.9406 6.18371 7.89927 6.43165 7.81895C6.64429 7.75579 6.8343 7.63284 6.97904 7.46475C7.11856 7.30023 7.18833 7.07125 7.18835 6.77782C7.19401 6.57019 7.13998 6.36531 7.03269 6.18747C6.91989 6.01551 6.75687 5.88248 6.56579 5.80645C6.3163 5.70947 6.04981 5.66384 5.78226 5.67229C5.61052 5.67229 5.45847 5.67407 5.32611 5.67764C5.19363 5.68133 5.10239 5.6867 5.05241 5.69374V5.69374Z" fill="#31A8FF"></path> <path d="M12.7981 7.52384C12.5964 7.42019 12.3816 7.34437 12.1595 7.29843C11.9148 7.24229 11.6646 7.21349 11.4135 7.21256C11.2777 7.20888 11.1421 7.22515 11.011 7.26087C10.9276 7.27945 10.8534 7.32698 10.8017 7.39503C10.7667 7.44946 10.7481 7.5128 10.748 7.5775C10.75 7.64027 10.7726 7.70064 10.8124 7.74923C10.8751 7.82257 10.9517 7.88276 11.0378 7.92633C11.1909 8.00874 11.3485 8.08221 11.5101 8.14636C11.8703 8.26695 12.2145 8.43094 12.5351 8.63473C12.7535 8.77257 12.9342 8.96251 13.0611 9.18749C13.1677 9.40053 13.2211 9.63624 13.2167 9.87444C13.2231 10.189 13.1332 10.4979 12.9591 10.7599C12.7727 11.0259 12.5137 11.2327 12.2131 11.3556C11.8874 11.4987 11.4849 11.5703 11.0056 11.5703C10.7011 11.5734 10.3972 11.5446 10.0987 11.4844C9.86348 11.4413 9.63454 11.3692 9.41709 11.2698C9.39362 11.2577 9.3741 11.2391 9.36079 11.2163C9.34748 11.1935 9.34095 11.1673 9.34196 11.141V9.98176C9.34067 9.97041 9.34248 9.95893 9.34721 9.94853C9.35194 9.93813 9.35941 9.92921 9.36881 9.92273C9.37803 9.91752 9.38862 9.91524 9.39916 9.9162C9.4097 9.91716 9.41971 9.92131 9.42783 9.9281C9.68463 10.0795 9.96347 10.19 10.2543 10.2555C10.5106 10.3197 10.7736 10.3539 11.0378 10.3574C11.2882 10.3574 11.4725 10.3252 11.5906 10.2608C11.6439 10.2364 11.689 10.1971 11.7205 10.1475C11.7519 10.098 11.7683 10.0404 11.7677 9.98176C11.7677 9.88886 11.714 9.79942 11.6067 9.71344C11.4994 9.62756 11.2811 9.52381 10.952 9.40216C10.6149 9.28486 10.2954 9.12238 10.0021 8.91917C9.79225 8.77325 9.61949 8.58027 9.49759 8.35566C9.39204 8.14416 9.33867 7.91045 9.34196 7.6741C9.34136 7.39011 9.41937 7.11149 9.56735 6.8691C9.73608 6.60218 9.97837 6.38972 10.265 6.2573C10.5798 6.09999 10.9734 6.02128 11.4457 6.02116C11.7223 6.01894 11.9987 6.03868 12.2722 6.0802C12.4702 6.10532 12.6638 6.15769 12.8476 6.23583C12.8621 6.24001 12.8755 6.24752 12.8867 6.25777C12.8979 6.26801 12.9065 6.28071 12.9119 6.29486C12.9192 6.32108 12.9228 6.34816 12.9227 6.37536V7.45943C12.9234 7.47205 12.9208 7.48463 12.9152 7.49594C12.9095 7.50724 12.901 7.51686 12.8905 7.52383C12.8761 7.53097 12.8603 7.53469 12.8443 7.53469C12.8283 7.53469 12.8125 7.53097 12.7981 7.52384V7.52384Z" fill="#31A8FF"></path> </g> <defs> <clipPath id="clip0_76_21625"> <rect width="16" height="16" fill="white"></rect> </clipPath> </defs> </svg> 