<?xml version="1.0" encoding="UTF-8"?> <svg xmlns="http://www.w3.org/2000/svg" width="16" height="16" viewBox="0 0 16 16" fill="none"> <g clip-path="url(#clip0_76_21650)"> <path d="M7.19995 12.8129H8.36124V7.08387L7.19995 6.69678V12.8129Z" fill="black"></path> <path d="M10.6065 4.55503C10.5936 5.32922 10.3484 5.72922 9.83228 5.72922C9.30325 5.72922 8.76131 5.44535 8.03873 5.09697C7.05809 4.63245 6.59357 4.50342 5.98712 4.50342C4.99357 4.50342 4.21938 5.32922 4.27099 6.74858H5.13551C5.14841 5.84535 5.47099 5.44535 5.98712 5.44535C6.50325 5.44535 7.04519 5.71632 7.71615 6.0518C8.7097 6.50342 9.22583 6.70987 9.80648 6.70987C10.6968 6.70987 11.5226 6.23245 11.4581 4.55503H10.6065Z" fill="black"></path> <path fill-rule="evenodd" clip-rule="evenodd" d="M0 7.9871C0 3.5871 3.5871 0 7.9871 0C12.4 0 15.9742 3.5871 15.9742 7.9871C15.9742 12.3871 12.3871 15.9742 7.9871 15.9742C3.5871 15.9742 0 12.3871 0 7.9871ZM0.516129 7.9871C0.516129 12.1161 3.87097 15.4581 7.9871 15.4581C12.1032 15.4581 15.4581 12.1032 15.4581 7.9871C15.4581 3.87097 12.1032 0.516129 7.9871 0.516129C3.87097 0.516129 0.516129 3.85806 0.516129 7.9871Z" fill="black" stroke="black" stroke-width="0.15"></path> </g> <defs> <clipPath id="clip0_76_21650"> <rect width="16" height="16" fill="white"></rect> </clipPath> </defs> </svg> 