<?xml version="1.0" encoding="UTF-8"?> <svg xmlns="http://www.w3.org/2000/svg" width="16" height="16" viewBox="0 0 16 16" fill="none"> <g clip-path="url(#clip0_76_21669)"> <path opacity="0.8" fill-rule="evenodd" clip-rule="evenodd" d="M8 0.394531C3.58 0.394531 0 3.97453 0 8.39453C0 11.9345 2.29 14.9245 5.47 15.9845C5.87 16.0545 6.02 15.8145 6.02 15.6045C6.02 15.4145 6.01 14.7845 6.01 14.1145C4 14.4845 3.48 13.6245 3.32 13.1745C3.23 12.9445 2.84 12.2345 2.5 12.0445C2.22 11.8945 1.82 11.5245 2.49 11.5145C3.12 11.5045 3.57 12.0945 3.72 12.3345C4.44 13.5445 5.59 13.2045 6.05 12.9945C6.12 12.4745 6.33 12.1245 6.56 11.9245C4.78 11.7245 2.92 11.0345 2.92 7.97453C2.92 7.10453 3.23 6.38453 3.74 5.82453C3.66 5.62453 3.38 4.80453 3.82 3.70453C3.82 3.70453 4.49 3.49453 6.02 4.52453C6.66 4.34453 7.34 4.25453 8.02 4.25453C8.7 4.25453 9.38 4.34453 10.02 4.52453C11.55 3.48453 12.22 3.70453 12.22 3.70453C12.66 4.80453 12.38 5.62453 12.3 5.82453C12.81 6.38453 13.12 7.09453 13.12 7.97453C13.12 11.0445 11.25 11.7245 9.47 11.9245C9.76 12.1745 10.01 12.6545 10.01 13.4045C10.01 14.4745 10 15.3345 10 15.6045C10 15.8145 10.15 16.0645 10.55 15.9845C13.71 14.9245 16 11.9245 16 8.39453C16 3.97453 12.42 0.394531 8 0.394531Z" fill="#1B1F23"></path> </g> <defs> <clipPath id="clip0_76_21669"> <rect width="16" height="16" fill="white"></rect> </clipPath> </defs> </svg> 