<?xml version="1.0" encoding="UTF-8"?> <svg xmlns="http://www.w3.org/2000/svg" width="40" height="40" viewBox="0 0 40 40" fill="none"> <path d="M31.1458 14.7456H30.9197C30.1774 14.7456 29.5623 14.7775 29.2077 15.4163L25.8156 21.6088C25.4926 22.1835 24.9758 22.2472 24.588 21.8641L24.5558 21.8322C24.5236 21.7693 24.4589 21.7364 24.4266 21.6725C24.4266 21.6725 21.2932 17.1395 21.1315 16.8842C20.8237 16.3938 20.4299 15.9614 19.9686 15.6074V15.6074C19.2904 15.1287 18.3213 14.7456 16.7705 14.7456C14.1863 14.7456 13.0234 15.799 12.2804 17.1716C12.2168 17.3313 8.14458 24.8006 8.14458 24.8006C7.78932 25.439 8.11234 25.9498 8.85531 25.9498H9.0814C9.82373 25.9498 10.4388 25.9179 10.7934 25.2791L14.1863 19.087C14.5093 18.5123 15.0262 18.4486 15.4139 18.8317L15.4461 18.8636C15.4784 18.9265 15.5431 18.9594 15.5753 19.0233C15.5753 19.0233 18.7088 23.5563 18.8704 23.8116C19.1782 24.302 19.572 24.7344 20.0333 25.0884V25.0884C20.744 25.631 21.6809 25.9823 23.2315 25.9823C25.8159 25.9823 26.9788 24.9289 27.7217 23.5563C27.7854 23.4286 31.889 15.9587 31.889 15.9587C32.1795 15.2882 31.8888 14.7456 31.1458 14.7456ZM10.0513 24.8968C9.95438 25.0565 9.85745 25.1521 9.0498 25.1521H8.85594L8.88818 25.1202C10.439 22.3118 11.4081 20.4278 11.6344 20.0446C12.1513 19.1828 12.8295 18.6081 13.3464 18.6081H13.4756L10.0513 24.8968ZM23.199 25.1521C21.4546 25.1521 20.6471 24.6732 20.0009 23.9711C19.8393 23.7795 19.6778 23.5561 19.5162 23.3327C19.3546 23.1092 19.161 22.8219 18.8702 22.4388L18.095 21.2896L17.9981 21.1299L16.2213 18.5763C16.1649 18.4952 16.0999 18.4203 16.0275 18.3528C14.9937 17.044 13.7339 17.2355 12.7648 17.7144C12.9909 17.0121 14.5093 15.5766 16.7705 15.5766C18.5149 15.5766 19.3224 16.0555 19.9686 16.7577C20.1302 16.9492 20.2916 17.1726 20.4533 17.3961C20.6149 17.6195 20.8085 17.9068 21.0993 18.29L21.8745 19.4391L21.9714 19.5988L23.7484 22.1516C23.8048 22.2327 23.8698 22.3076 23.9422 22.375C24.976 23.6839 26.2358 23.4924 27.2049 23.0135C26.9786 23.716 25.4604 25.1523 23.199 25.1523V25.1521ZM31.0811 15.6074C29.5305 18.4159 28.5614 20.2999 28.3353 20.683C27.8185 21.5449 27.1402 22.1196 26.6233 22.1196H26.4941L29.9513 15.8319C30.0482 15.6722 30.1451 15.5766 30.9528 15.5766H31.1466L31.0811 15.6074Z" fill="#00ADBF"></path> </svg> 