<?xml version="1.0" encoding="UTF-8"?> <svg xmlns="http://www.w3.org/2000/svg" width="16" height="16" viewBox="0 0 16 16" fill="none"> <path d="M5.29264 16C6.76464 16 7.95931 14.8053 7.95931 13.3333V10.6667H5.29264C3.82064 10.6667 2.62598 11.8613 2.62598 13.3333C2.62598 14.8053 3.82064 16 5.29264 16Z" fill="#0ACF83"></path> <path d="M2.62598 8C2.62598 6.528 3.82064 5.33333 5.29264 5.33333H7.95931V10.6667H5.29264C3.82064 10.6667 2.62598 9.47199 2.62598 8Z" fill="#A259FF"></path> <path d="M2.62598 2.66667C2.62598 1.19467 3.82064 0 5.29264 0H7.95931V5.33333H5.29264C3.82064 5.33333 2.62598 4.13867 2.62598 2.66667Z" fill="#F24E1E"></path> <path d="M7.95931 0H10.626C12.098 0 13.2927 1.19467 13.2927 2.66667C13.2927 4.13867 12.098 5.33333 10.626 5.33333L7.95931 5.33333V0Z" fill="#FF7262"></path> <path d="M13.2927 8C13.2927 9.47199 12.098 10.6667 10.626 10.6667C9.15398 10.6667 7.95931 9.47199 7.95931 8C7.95931 6.528 9.15398 5.33333 10.626 5.33333C12.098 5.33333 13.2927 6.528 13.2927 8Z" fill="#1ABCFE"></path> </svg> 