<?xml version="1.0" encoding="UTF-8"?> <svg xmlns="http://www.w3.org/2000/svg" width="18" height="18" viewBox="0 0 18 18" fill="none"><path d="M12.8256 7C13.0041 7 13.175 7.06861 13.3011 7.19035C13.3642 7.25109 13.4143 7.32345 13.4484 7.40287C13.4825 7.48228 13.5 7.56741 13.5 7.65334C13.5 7.73927 13.4825 7.82439 13.4484 7.90381C13.4144 7.98313 13.3643 8.05546 13.3013 8.11616L9.45807 11.8049L9.4565 11.8064C9.39395 11.8676 9.31944 11.9163 9.23722 11.9496C9.15501 11.9829 9.06676 12 8.9776 12C8.88844 12 8.8002 11.9829 8.71798 11.9496C8.63577 11.9163 8.56061 11.867 8.49805 11.8058L4.6987 8.11616C4.63563 8.05541 4.58566 7.98323 4.55159 7.90381C4.51752 7.82439 4.5 7.73927 4.5 7.65334C4.5 7.5674 4.51752 7.48228 4.55159 7.40287C4.58566 7.32345 4.63581 7.25109 4.69888 7.19035C4.82498 7.06861 4.99591 7 5.17441 7C5.35282 7 5.52387 7.06874 5.64995 7.19035L8.97651 10.4208L12.35 7.19035C12.4762 7.06861 12.6471 7 12.8256 7Z" fill="black"></path></svg> 