<?xml version="1.0" encoding="UTF-8"?> <svg xmlns="http://www.w3.org/2000/svg" width="16" height="16" viewBox="0 0 16 16" fill="none"> <path d="M13.6067 1.88232L7.71558 1.88232C7.71558 2.58762 7.99576 3.26404 8.49448 3.76276C8.9932 4.26148 9.66961 4.54166 10.3749 4.54166H11.4601V5.58938C11.4611 7.05677 12.6504 8.24608 14.1178 8.24702V2.39341C14.1178 2.11114 13.8889 1.88232 13.6067 1.88232Z" fill="#2684FF"></path> <path d="M10.6928 4.81787L4.80176 4.81787C4.8027 6.28525 5.99201 7.47457 7.45939 7.47551H8.54459V8.52664C8.54647 9.99402 9.73655 11.1826 11.2039 11.1826V5.32895C11.2039 5.04669 10.9751 4.81787 10.6928 4.81787Z" fill="url(#paint0_linear_76_21676)"></path> <path d="M7.77415 7.75146L1.88306 7.75146C1.88306 9.22018 3.07368 10.4108 4.5424 10.4108H5.631V11.4585C5.63194 12.9246 6.81918 14.1133 8.28523 14.1162V8.26255C8.28523 7.98028 8.05641 7.75146 7.77415 7.75146Z" fill="url(#paint1_linear_76_21676)"></path> <defs> <linearGradient id="paint0_linear_76_21676" x1="9.77807" y1="3.58242" x2="7.2873" y2="6.18142" gradientUnits="userSpaceOnUse"> <stop offset="0.18" stop-color="#0052CC"></stop> <stop offset="1" stop-color="#2684FF"></stop> </linearGradient> <linearGradient id="paint1_linear_76_21676" x1="188.341" y1="174.597" x2="81.3333" y2="280.498" gradientUnits="userSpaceOnUse"> <stop offset="0.18" stop-color="#0052CC"></stop> <stop offset="1" stop-color="#2684FF"></stop> </linearGradient> </defs> </svg> 