<?xml version="1.0" encoding="UTF-8"?> <svg xmlns="http://www.w3.org/2000/svg" width="16" height="16" viewBox="0 0 16 16" fill="none"> <g clip-path="url(#clip0_76_21621)"> <path fill-rule="evenodd" clip-rule="evenodd" d="M10.4853 0.0364882L1.60545 0.689924C0.889422 0.751889 0.639893 1.21866 0.639893 1.77826L0.639893 11.4835C0.639893 11.9196 0.795433 12.2923 1.16947 12.7904L3.25689 15.4967C3.59976 15.9325 3.91137 16.0257 4.56609 15.9945L14.8782 15.3722C15.7504 15.3103 15.9999 14.9056 15.9999 14.2214L15.9999 3.30264C15.9999 2.94892 15.8598 2.84673 15.4469 2.54551C15.4242 2.52894 15.4007 2.51177 15.3763 2.49391L12.5417 0.503137C11.8563 0.0056333 11.5758 -0.0569691 10.4853 0.0364882ZM4.7999 3.12355C3.95798 3.18036 3.76667 3.19327 3.28856 2.80515L2.07271 1.84086C1.94871 1.71616 2.0109 1.56062 2.32224 1.52977L10.8592 0.907566C11.5756 0.845218 11.9494 1.09448 12.23 1.31212L13.6942 2.36986C13.7566 2.40084 13.9121 2.58725 13.7251 2.58725L4.90859 3.11625L4.7999 3.12355ZM3.81789 14.1279L3.81789 4.85827C3.81789 4.45397 3.94252 4.26719 4.31618 4.23581L14.4416 3.64498C14.785 3.61388 14.9406 3.83177 14.9406 4.23581L14.9406 13.4432C14.9406 13.8479 14.8781 14.1905 14.3171 14.2214L4.62777 14.7816C4.06703 14.8124 3.81789 14.626 3.81789 14.1279ZM13.3831 5.35552C13.4453 5.63577 13.3831 5.91575 13.1022 5.94724L12.6353 6.04019L12.6353 12.8836C12.23 13.1013 11.8562 13.2257 11.5447 13.2257C11.0461 13.2257 10.9212 13.0701 10.5477 12.6037L7.49392 7.81332L7.49392 12.4482L8.46023 12.6661C8.46023 12.6661 8.46023 13.2257 7.68062 13.2257L5.53139 13.3503C5.46895 13.2257 5.53139 12.9149 5.74938 12.8526L6.31024 12.6973L6.31024 6.56919L5.53151 6.50684C5.46907 6.2266 5.62461 5.82255 6.0611 5.79119L8.36675 5.63588L11.5447 10.4887L11.5447 6.19574L10.7345 6.1028C10.6723 5.76021 10.9212 5.51145 11.2328 5.48059L13.3831 5.35552Z" fill="black"></path> </g> <defs> <clipPath id="clip0_76_21621"> <rect width="16" height="16" fill="white"></rect> </clipPath> </defs> </svg> 