<?xml version="1.0" encoding="UTF-8"?> <svg xmlns="http://www.w3.org/2000/svg" width="16" height="16" viewBox="0 0 16 16" fill="none"> <g clip-path="url(#clip0_76_21686)"> <g style="mix-blend-mode:multiply" opacity="0.2"> <path d="M4.98241 12.3398C4.80631 12.3417 4.63569 12.3998 4.49669 12.5054C4.3577 12.6109 4.25801 12.758 4.21289 12.9242C4.16778 13.0903 4.17974 13.2663 4.24694 13.4252C4.31413 13.584 4.43286 13.717 4.58491 13.8037L7.42491 15.3749C7.65883 15.5047 7.92334 15.5728 8.19241 15.5725C8.33718 15.5724 8.48117 15.5519 8.61991 15.5115L12.8924 14.3234C13.2111 14.234 13.4914 14.046 13.6912 13.7877C13.8909 13.5295 13.9993 13.2148 13.9999 12.8912V12.3398L4.98241 12.3398Z" fill="white"></path> </g> <g style="mix-blend-mode:multiply" opacity="0.12"> <path d="M4.98241 12.3403C4.80631 12.3422 4.63569 12.4003 4.49669 12.5059C4.3577 12.6114 4.25801 12.7585 4.21289 12.9247C4.16778 13.0908 4.17974 13.2668 4.24694 13.4256C4.31413 13.5845 4.43286 13.7175 4.58491 13.8042L7.42491 15.3754C7.65883 15.5052 7.92334 15.5733 8.19241 15.573C8.33718 15.5729 8.48117 15.5524 8.61991 15.512L12.8924 14.3239C13.2111 14.2345 13.4914 14.0465 13.6912 13.7882C13.8909 13.5299 13.9993 13.2153 13.9999 12.8917V12.3403L4.98241 12.3403Z" fill="white"></path> </g> <path d="M8.60254 0.873047L9.75004 3.4348L9.75004 12.34L8.62004 15.5117L12.8925 14.3235C13.2112 14.2341 13.4915 14.0462 13.6913 13.7879C13.891 13.5296 13.9994 13.2149 14 12.8913L14 3.49336C14.0002 3.16893 13.8919 2.85332 13.6915 2.59441C13.4912 2.33551 13.2098 2.14745 12.89 2.05877L8.60254 0.873047Z" fill="url(#paint0_linear_76_21686)"></path> <path d="M3.185 12.2448L4.435 11.586C4.60643 11.4941 4.74935 11.3588 4.84876 11.1944C4.94817 11.03 5.00041 10.8425 5 10.6516L5 5.85747C5.00023 5.63909 5.06917 5.42605 5.19749 5.24715C5.32581 5.06825 5.50733 4.93212 5.7175 4.85716L9.75 3.43478V2.35396C9.74953 2.01897 9.63729 1.69324 9.43026 1.42604C9.22322 1.15885 8.93265 0.964717 8.6025 0.873019C8.4619 0.833618 8.31628 0.813903 8.17 0.814465V0.814465C7.89486 0.815079 7.62452 0.884818 7.385 1.01697L2.77 3.58604C2.53614 3.71609 2.34172 3.90422 2.20648 4.13133C2.07124 4.35845 2 4.61644 2 4.87912L2 11.5543C1.99965 11.6902 2.03552 11.8238 2.1041 11.942C2.17267 12.0603 2.27158 12.1591 2.39111 12.2287C2.51065 12.2984 2.64669 12.3365 2.78588 12.3393C2.92507 12.3421 3.06262 12.3095 3.185 12.2448V12.2448Z" fill="url(#paint1_linear_76_21686)"></path> <path d="M9.74991 12.3403H4.98241C4.80631 12.3422 4.63569 12.4003 4.49669 12.5059C4.3577 12.6114 4.25801 12.7585 4.21289 12.9247C4.16778 13.0908 4.17974 13.2668 4.24694 13.4256C4.31413 13.5845 4.43286 13.7175 4.58491 13.8042L7.42491 15.3754C7.65883 15.5052 7.92334 15.5733 8.19241 15.573V15.573C8.33718 15.5729 8.48118 15.5524 8.61991 15.512C8.94603 15.4216 9.23293 15.2296 9.43693 14.9654C9.64092 14.7011 9.75083 14.379 9.74991 14.0482V12.3403Z" fill="url(#paint2_linear_76_21686)"></path> <path d="M3.185 12.2448L4.435 11.586C4.60643 11.4941 4.74935 11.3588 4.84876 11.1944C4.94817 11.03 5.00041 10.8425 5 10.6516L5 5.85747C5.00023 5.63909 5.06917 5.42605 5.19749 5.24715C5.32581 5.06825 5.50733 4.93212 5.7175 4.85716L9.75 3.43478V2.35396C9.74953 2.01897 9.63729 1.69324 9.43026 1.42604C9.22322 1.15885 8.93265 0.964717 8.6025 0.873019C8.4619 0.833618 8.31628 0.813903 8.17 0.814465V0.814465C7.89486 0.815079 7.62452 0.884818 7.385 1.01697L2.77 3.58604C2.53614 3.71609 2.34172 3.90422 2.20648 4.13133C2.07124 4.35845 2 4.61644 2 4.87912L2 11.5543C1.99965 11.6902 2.03552 11.8238 2.1041 11.942C2.17267 12.0603 2.27158 12.1591 2.39111 12.2287C2.51065 12.2984 2.64669 12.3365 2.78588 12.3393C2.92507 12.3421 3.06262 12.3095 3.185 12.2448V12.2448Z" fill="url(#paint3_linear_76_21686)"></path> <path d="M9.74991 12.3403H4.98241C4.80631 12.3422 4.63569 12.4003 4.49669 12.5059C4.3577 12.6114 4.25801 12.7585 4.21289 12.9247C4.16778 13.0908 4.17974 13.2668 4.24694 13.4256C4.31413 13.5845 4.43286 13.7175 4.58491 13.8042L7.42491 15.3754C7.65883 15.5052 7.92334 15.5733 8.19241 15.573V15.573C8.33718 15.5729 8.48118 15.5524 8.61991 15.512C8.94603 15.4216 9.23293 15.2296 9.43693 14.9654C9.64092 14.7011 9.75083 14.379 9.74991 14.0482V12.3403Z" fill="url(#paint4_linear_76_21686)"></path> </g> <defs> <linearGradient id="paint0_linear_76_21686" x1="11.3" y1="0.0386461" x2="11.3" y2="14.487" gradientUnits="userSpaceOnUse"> <stop stop-color="#FFB900"></stop> <stop offset="0.17" stop-color="#EF8400"></stop> <stop offset="0.31" stop-color="#E25C01"></stop> <stop offset="0.43" stop-color="#DB4401"></stop> <stop offset="0.5" stop-color="#D83B01"></stop> </linearGradient> <linearGradient id="paint1_linear_76_21686" x1="8.63" y1="0.54853" x2="1.0444" y2="11.6477" gradientUnits="userSpaceOnUse"> <stop stop-color="#800600"></stop> <stop offset="0.6" stop-color="#C72127"></stop> <stop offset="0.73" stop-color="#C13959"></stop> <stop offset="0.85" stop-color="#BC4B81"></stop> <stop offset="0.94" stop-color="#B95799"></stop> <stop offset="1" stop-color="#B85BA2"></stop> </linearGradient> <linearGradient id="paint2_linear_76_21686" x1="4.62491" y1="13.9579" x2="14.8599" y2="13.9579" gradientUnits="userSpaceOnUse"> <stop stop-color="#F32B44"></stop> <stop offset="0.6" stop-color="#A4070A"></stop> </linearGradient> <linearGradient id="paint3_linear_76_21686" x1="8.79" y1="0.326511" x2="7.18386" y2="2.67623" gradientUnits="userSpaceOnUse"> <stop stop-opacity="0.4"></stop> <stop offset="1" stop-opacity="0"></stop> </linearGradient> <linearGradient id="paint4_linear_76_21686" x1="11.5799" y1="14.1824" x2="6.99914" y2="13.7726" gradientUnits="userSpaceOnUse"> <stop stop-opacity="0.4"></stop> <stop offset="1" stop-opacity="0"></stop> </linearGradient> <clipPath id="clip0_76_21686"> <rect width="16" height="16" fill="white"></rect> </clipPath> </defs> </svg> 