<?xml version="1.0" encoding="UTF-8"?> <svg xmlns="http://www.w3.org/2000/svg" width="24" height="24" viewBox="0 0 24 24" fill="none"> <path d="M16.7194 10.2793C16.5417 10.1004 16.3012 10 16.0506 10C15.8 10 15.5596 10.1004 15.3818 10.2793L11.9763 13.6796L8.61816 10.2793C8.44042 10.1004 8.19999 10 7.94938 10C7.69877 10 7.45834 10.1004 7.2806 10.2793C7.19169 10.3686 7.12112 10.4748 7.07296 10.5919C7.0248 10.7089 7 10.8345 7 10.9613C7 11.0881 7.0248 11.2136 7.07296 11.3307C7.12112 11.4477 7.19169 11.554 7.2806 11.6433L11.3028 15.7159C11.3909 15.8059 11.4959 15.8774 11.6115 15.9261C11.7271 15.9749 11.8511 16 11.9763 16C12.1015 16 12.2255 15.9749 12.3411 15.9261C12.4567 15.8774 12.5616 15.8059 12.6498 15.7159L16.7194 11.6433C16.8083 11.554 16.8789 11.4477 16.927 11.3307C16.9752 11.2136 17 11.0881 17 10.9613C17 10.8345 16.9752 10.7089 16.927 10.5919C16.8789 10.4748 16.8083 10.3686 16.7194 10.2793Z" fill="black"></path> </svg> 