<?xml version="1.0" encoding="UTF-8"?> <svg xmlns="http://www.w3.org/2000/svg" width="40" height="40" viewBox="0 0 40 40" fill="none"> <path d="M20.4364 14.4273H10.2V13.0182H16.5637V11.2H17.9819V13.0182H24.3455V14.441H21.7344L21.6908 14.5819C21.0361 16.6984 19.9243 18.6988 18.3639 20.4398L18.1982 20.6055L20.5583 22.9377L20.0216 24.3751L17.2728 21.6263L12.7273 26.1718L11.7246 25.1691L16.34 20.6082L16.2124 20.4663C15.1621 19.2983 14.3087 18.013 13.6668 16.6546H15.0511C15.6043 17.7116 16.2954 18.7116 17.124 19.6337L17.2726 19.7992L17.4214 19.6339C18.7488 18.1589 19.7213 16.472 20.3434 14.6934L20.4364 14.4273Z" fill="#1F2024"></path> <path fill-rule="evenodd" clip-rule="evenodd" d="M27.2977 26.2546H22.7024L21.6796 28.9819H20.2886L24.2295 18.4728H25.7705L29.7115 28.9819H28.3204L27.2977 26.2546ZM25.0001 20.1257L23.2342 24.8364H26.7659L25.0001 20.1257Z" fill="#1F2024"></path> <path fill-rule="evenodd" clip-rule="evenodd" d="M10.05 14.5773V12.8682H16.4137V11.05H18.1319V12.8682H24.4955V14.591H21.845L21.8341 14.6262C21.1731 16.7632 20.0506 18.7826 18.4756 20.5399L18.4701 20.546L18.411 20.6048L20.7328 22.8993L20.0805 24.6461L17.2728 21.8384L12.7273 26.3839L11.5119 25.1685L16.1327 20.6021L16.1009 20.5666C15.0409 19.388 14.1794 18.0905 13.5312 16.7187L13.43 16.5046H15.1419L15.184 16.585C15.7314 17.6309 16.4153 18.6206 17.2356 19.5335L17.2727 19.5748L17.3099 19.5335C18.6236 18.0738 19.586 16.4044 20.2018 14.6438L20.225 14.5773H10.05ZM20.4364 14.4273L20.3434 14.6934C19.7213 16.472 18.7488 18.1589 17.4214 19.6339L17.2726 19.7992L17.124 19.6337C16.2954 18.7116 15.6043 17.7116 15.0511 16.6546H13.6668C13.6905 16.7047 13.7144 16.7547 13.7387 16.8046C14.3719 18.1076 15.2008 19.3414 16.2124 20.4663L16.34 20.6082L11.7246 25.1691L12.7273 26.1718L17.2728 21.6263L20.0216 24.3751L20.5583 22.9377L18.1982 20.6055L18.3639 20.4398C19.9243 18.6988 21.0361 16.6984 21.6908 14.5819L21.7344 14.441H24.3455V13.0182H17.9819V11.2H16.5637V13.0182H10.2V14.4273H20.4364ZM28.3204 28.9819L27.2977 26.2546H22.7024L21.6796 28.9819H20.2886L24.2295 18.4728H25.7705L29.7115 28.9819H28.3204ZM22.8063 26.4046L21.7836 29.1319H20.0722L24.1256 18.3228H25.8745L29.9279 29.1319H28.2165L27.1938 26.4046H22.8063ZM23.2342 24.8364H26.7659L25.0001 20.1257L23.2342 24.8364ZM23.4506 24.6864H26.5495L25.0001 20.5531L23.4506 24.6864Z" fill="#1F2024"></path> </svg> 