<?xml version="1.0" encoding="UTF-8"?> <svg xmlns="http://www.w3.org/2000/svg" id="_Слой_1" data-name="Слой 1" viewBox="0 0 150 26.11"> <defs> <style> .cls-1, .cls-2 { fill: #1f2024; } .cls-2 { fill-rule: evenodd; } </style> </defs> <path class="cls-2" d="M107.39,19.91c-.27-3.04,2.14-5.77,3.76-8.25,2.47-1.18,18.66-7.94,16.06-11.59-6.18-.79-13.03,6.57-16.34,10.34-.42,.69-1.27,.82-2.01,.94-.32,.04-1.34,.37-.79-.25,1.07-1.35,2.83-1.66,4.22-2.54,.12-.11,.18-.26,.12-.43-.76-.86-2.52,.79-3.3,1.08-1.28,.78-2.66,1.17-4.1,1.47,.36-.51,1.09-1.05,1.48-1.5,.11-.12,.14-.34,.01-.49-.45-.4-.96,.03-1.36,.29-1.2,.67-2.3,1.39-3.55,1.97,.55-.67,1.19-1.24,1.73-1.92,.51-2.21-4.54,1.69-5.21,1.98,.35-.58,2.76-2.58,1.88-3.03-.23-.05-.57,.08-.74,.44-1.09,1.68-2.86,2.87-3.9,4.59,.26,.16,.61,.19,.85,.05,1.74-1.15,3.47-2.3,5.27-3.32-3.36,3.42,.52,2.29,2.48,.91-.25,1.75,2.43,.36,3.24,.18-1.29,1.82,1.6,1.39,2.46,1.16-4.14,5.63-6.21,12.57,3.59,6.76,5.21-2.73,10.48-5.22,16.04-6.74,4.89-1.34,9.74-2.14,14.51-1.26,5.02,.69,7.07,4.77,2.69,7.78,2.76,.07,4.5-3.68,2.89-5.77-9.42-8.3-29.35,1.57-38.91,6.48-.87,.28-2.27,1.43-3.08,.68ZM126.24,1.48c-3.59,4.27-8.92,6.51-13.93,8.77,3.67-4.1,8.09-8.32,13.56-9.45,.56-.06,.65,.24,.37,.68Z"></path> <path class="cls-2" d="M21.41,11.63c6.43-4.17,1.26-8.23-4.3-6.73-4.45,6.62-8.15,13.82-12.16,20.74C.52,29.73,15.38,5.8,15.85,5.02,11.11,6.01,2.43,8.64,.74,14c-.3,.41-.93,0-.68-.46,1.37-2.95,3.93-4.94,6.87-6.36,2.94-1.42,6.25-2.28,9.11-2.95,.79-.13,.8-1.28,1.53-1.55,.93,0,.27,.89,0,1.28,4.43-.66,10.94,1.4,6.29,6.68,1.32-.23,9.53-4.33,9.42-1.93-.73,1.02-1.72,1.8-2.44,2.82,1.97-.86,3.74-1.89,5.39-3.32-4.24-.48,1.31-3.57,1.54-.81,1.04,.08,2.23-.12,3.21-.7,.3-.19,.9-.46,1.31-.29,.37,.13,.4,.74,.1,.93-.44,.37-1.29,.24-1.67,.7-.21,.83,.27,2,.42,2.87,4.74-3.1,9.76-5.82,13.88-9.75,.46-.35,1.05-1.25,1.7-.74,.31,.31,.03,.74-.27,.93-1.97,1.56-3.44,3.59-4.92,5.61,.53,.04,4.41-.88,3.05,.49-1.33,.37-3.1-.14-4.1,.93-.74,.58-2.85,6.63-3.73,4.59,1.03-2.02,.55-2.8-.52-4.37-1.77,1.31-3.9,2.25-5.48,3.79-.41,.68-1.85,1.73-2.6,.9-.08-1.02,1.34-1.1,1.78-1.79,.23-1.15-.66-2.22-.33-3.4-.74,.21-1.79-.08-2.48,.33-.82,.75-7.17,5.9-7.6,3.33,.62-1.14,1.71-1.97,2.55-2.94-3.3,.67-6.66,1.91-9.76,3.34-.65,.33-5.16,3.91-5.39,1.84,1.27-1.12,2.97-1.65,4.48-2.36Zm27.66-2.99c.13-.2,.25-.4,.37-.59-.18,.02-.36,.04-.54,.07h0c-.48,.04-.94,.1-1.41,.25,.32,.46,.61,.93,.81,1.5,.24-.39,.51-.82,.77-1.23Zm-12.29-1.22c-.32-.02-.7-.1-.99-.19,.12-.23,.54-.1,.76-.14,.12,.02,.36,.2,.24,.33Zm14.78-2.33c-1.08,.73-2.16,1.45-3.29,2.21,.6-.08,1.23-.08,1.81-.24,.55-.58,.99-1.32,1.48-1.97Z"></path> <path class="cls-2" d="M73.22,11.08c-.05-.23,0-.48,.12-.64,.89-.53,1.97-.94,2.9-1.41-1.43-.37-2.68,.42-3.9,1.03,1.42-1.59,2.95-3.05,4.41-4.59,.16-.82-.83-.68-1.19-.26-2.43,1.34-9.45,6.61-13.31,5.98,.11-1.16,2.36-1.12,2.34-2.3-.59-.78-1.79,.38-2.23,.7-1.15,1.02-2.62,1.44-4.07,1.73,.29-.74,1.15-1.26,1.75-1.82,.39-.58-.5-.83-.85-.45-1.86,1.15-3.73,2.33-5.73,3.16,.72-1.21,1.69-2.32,2.52-3.46,.12-.17,.06-.37-.08-.49-.13-.12-.34-.17-.5-.05-4.2,4.3-4.8,6.94,1.75,3.02-.1,2.02,3.23,.27,4.07,.03,1.67,3.23,10.57-2.95,12.46-3.83-1.54,1.59-3.18,3.16-4.65,4.8,.22,1.42,2.54-1.03,3.27-1.2,.87,3,4.72,.73,6.65,.16,.5,1.88,3.4,.26,4.28-.16,2.01-.53,4.04-1.07,6.07-1.52-.47,.82-4.75,3.5-2.12,3.76,3.4-1.05,6.63-3.19,10.2-3.66l-.03-.38c-3.34,.11-6.27,1.89-9.38,2.88,1.64-1.54,4.93-4.46,.12-3.15v.02c-1.08,.24-2.14,.57-3.23,.79,2.85-4.1-7.39-1.95-6.38,.81-1.17,.42-4.71,2.15-5.29,.51Zm9.55-.85c-.76,.03-1.52,.23-2.28,.23,.26-.2,.61-.29,.78-.6-.09-1.13-1.29,.07-1.74,.26-.05,.02-.04-.01-.05-.06,.59-1.32,4-2.47,4.99-1.46,.09,.73-1.04,1.59-1.71,1.63Zm-2.69,.97c.27,.04,.53,.05,.81,.03-.24,.03-.93,.34-.92-.06,.02,0,.05,0,.07,0h0s.04,.02,.04,.02Z"></path> <path class="cls-1" d="M69.35,5.63c-.71,.07-1.05,1.29-.06,1.04,.71-.11,1.02-1.22,.06-1.04Z"></path> </svg> 