<?xml version="1.0" encoding="UTF-8"?> <svg xmlns="http://www.w3.org/2000/svg" width="30" height="30" viewBox="0 0 30 30" fill="none"> <path d="M9.15787 11.25H9.17737C10.2236 11.25 10.875 10.5 10.875 9.5625C10.8555 8.60437 10.2236 7.875 9.19725 7.875C8.17088 7.875 7.5 8.60437 7.5 9.5625C7.5 10.5 8.151 11.25 9.15787 11.25ZM7.5 12.375H10.875V22.125H7.5V12.375ZM22.5 15.9375C22.5 13.9699 20.9051 12.375 18.9375 12.375C17.7926 12.375 16.7768 12.9173 16.125 13.7565V12.375H12.75V22.125H16.125V16.5C16.125 15.6716 16.7966 15 17.625 15C18.4534 15 19.125 15.6716 19.125 16.5V22.125H22.5C22.5 22.125 22.5 16.4831 22.5 15.9375Z" fill="#0288D1"></path> </svg> 