<?xml version="1.0" encoding="UTF-8"?> <svg xmlns="http://www.w3.org/2000/svg" width="32" height="32" viewBox="0 0 32 32" fill="none"><path d="M9.70635 11.4737H9.72642C10.8033 11.4737 11.4737 10.7018 11.4737 9.73684C11.4536 8.7507 10.8033 8 9.74688 8C8.69049 8 8 8.7507 8 9.73684C8 10.7018 8.67003 11.4737 9.70635 11.4737ZM8 12.6316H11.4737V22.6667H8V12.6316ZM23.4386 16.2982C23.4386 14.2731 21.7971 12.6316 19.7719 12.6316C18.5936 12.6316 17.548 13.1897 16.8772 14.0535V12.6316H13.4035V22.6667H16.8772V16.8772C16.8772 16.0246 17.5685 15.3333 18.4211 15.3333C19.2736 15.3333 19.9649 16.0246 19.9649 16.8772V22.6667H23.4386C23.4386 22.6667 23.4386 16.8598 23.4386 16.2982Z" fill="#CAC9CF"></path></svg> 