<?xml version="1.0" encoding="UTF-8"?> <svg xmlns="http://www.w3.org/2000/svg" width="14" height="14" viewBox="0 0 14 14" fill="none"> <path d="M10.4533 3.86167C10.3941 3.71913 10.2808 3.60586 10.1383 3.54667C10.0682 3.51678 9.99286 3.50092 9.91663 3.5H4.0833C3.92859 3.5 3.78022 3.56146 3.67082 3.67085C3.56142 3.78025 3.49996 3.92862 3.49996 4.08333C3.49996 4.23804 3.56142 4.38642 3.67082 4.49581C3.78022 4.60521 3.92859 4.66667 4.0833 4.66667H8.5108L3.66913 9.5025C3.61446 9.55673 3.57106 9.62125 3.54144 9.69233C3.51183 9.76341 3.49658 9.83966 3.49658 9.91667C3.49658 9.99367 3.51183 10.0699 3.54144 10.141C3.57106 10.2121 3.61446 10.2766 3.66913 10.3308C3.72336 10.3855 3.78788 10.4289 3.85896 10.4585C3.93005 10.4881 4.00629 10.5034 4.0833 10.5034C4.1603 10.5034 4.23655 10.4881 4.30763 10.4585C4.37872 10.4289 4.44324 10.3855 4.49746 10.3308L9.3333 5.48917V9.91667C9.3333 10.0714 9.39476 10.2197 9.50415 10.3291C9.61355 10.4385 9.76192 10.5 9.91663 10.5C10.0713 10.5 10.2197 10.4385 10.3291 10.3291C10.4385 10.2197 10.5 10.0714 10.5 9.91667V4.08333C10.499 4.0071 10.4832 3.9318 10.4533 3.86167V3.86167Z" fill="#1F2024"></path> </svg> 