<?xml version="1.0" encoding="UTF-8"?> <svg xmlns="http://www.w3.org/2000/svg" width="16" height="16" viewBox="0 0 16 16" fill="none"> <g clip-path="url(#clip0_76_21656)"> <mask id="mask0_76_21656" style="mask-type:alpha" maskUnits="userSpaceOnUse" x="0" y="0" width="16" height="16"> <path fill-rule="evenodd" clip-rule="evenodd" d="M11.1599 15.4133C11.3979 15.506 11.6693 15.5001 11.9095 15.3845L15.0206 13.8875C15.3475 13.7302 15.5554 13.3993 15.5554 13.0363V2.8856C15.5554 2.52263 15.3476 2.19177 15.0206 2.03447L11.9095 0.537403C11.5943 0.385704 11.2253 0.422861 10.9486 0.624019C10.9091 0.652754 10.8714 0.684838 10.8361 0.720195L4.88022 6.15386L2.28596 4.1846C2.04445 4.00128 1.70666 4.0163 1.48237 4.22033L0.650305 4.97722C0.37595 5.22678 0.375636 5.6584 0.649625 5.90838L2.89945 7.96094L0.649625 10.0135C0.375636 10.2635 0.37595 10.6951 0.650305 10.9447L1.48237 11.7015C1.70666 11.9056 2.04445 11.9206 2.28596 11.7373L4.88022 9.76802L10.8361 15.2017C10.9303 15.2959 11.0409 15.3669 11.1599 15.4133ZM11.78 4.53054L7.26082 7.96094L11.78 11.3913V4.53054Z" fill="white"></path> </mask> <g mask="url(#mask0_76_21656)"> <path d="M15.0206 2.03667L11.9071 0.537548C11.5467 0.364025 11.116 0.437221 10.8331 0.720058L0.640473 10.0134C0.366316 10.2633 0.366632 10.695 0.641153 10.9445L1.47372 11.7014C1.69815 11.9054 2.03615 11.9205 2.2778 11.7371L14.5521 2.42558C14.9639 2.11319 15.5554 2.40689 15.5554 2.92377V2.88762C15.5554 2.5248 15.3475 2.19407 15.0206 2.03667Z" fill="#0065A9"></path> <g filter="url(#filter0_d_76_21656)"> <path d="M15.0206 13.8851L11.9071 15.3842C11.5467 15.5578 11.116 15.4846 10.8331 15.2017L0.640473 5.90843C0.366316 5.65847 0.366632 5.22683 0.641153 4.97727L1.47372 4.22039C1.69815 4.01636 2.03615 4.00134 2.2778 4.18465L14.5521 13.4962C14.9639 13.8086 15.5554 13.5149 15.5554 12.998V13.0342C15.5554 13.397 15.3475 13.7277 15.0206 13.8851Z" fill="#007ACC"></path> </g> <g filter="url(#filter1_d_76_21656)"> <path d="M11.9071 15.3845C11.5466 15.5579 11.1159 15.4845 10.833 15.2017C11.1815 15.5502 11.7775 15.3034 11.7775 14.8105V1.1114C11.7775 0.618513 11.1815 0.371673 10.833 0.720195C11.1159 0.437332 11.5466 0.364033 11.9071 0.537403L15.0201 2.03447C15.3472 2.19178 15.5552 2.52263 15.5552 2.8856V13.0363C15.5552 13.3993 15.3472 13.7302 15.0201 13.8875L11.9071 15.3845Z" fill="#1F9CF0"></path> </g> <g style="mix-blend-mode:overlay" opacity="0.25"> <path fill-rule="evenodd" clip-rule="evenodd" d="M11.1506 15.4133C11.3886 15.506 11.66 15.5001 11.9002 15.3845L15.0114 13.8875C15.3383 13.7302 15.5462 13.3993 15.5462 13.0363V2.88561C15.5462 2.52263 15.3383 2.19177 15.0114 2.03446L11.9002 0.537403C11.585 0.385704 11.216 0.422861 10.9393 0.624017C10.8998 0.652754 10.8621 0.684838 10.8268 0.720195L4.87094 6.15386L2.27668 4.18461C2.03519 4.00128 1.69739 4.01631 1.47309 4.22033L0.641028 4.97721C0.366673 5.22679 0.366359 5.65841 0.640348 5.90838L2.89017 7.96093L0.640348 10.0135C0.366359 10.2635 0.366673 10.6951 0.641028 10.9447L1.47309 11.7015C1.69739 11.9056 2.03519 11.9206 2.27668 11.7373L4.87094 9.76801L10.8268 15.2017C10.921 15.2959 11.0317 15.3669 11.1506 15.4133ZM11.7707 4.53054L7.25154 7.96093L11.7707 11.3913V4.53054Z" fill="url(#paint0_linear_76_21656)"></path> </g> </g> </g> <defs> <filter id="filter0_d_76_21656" x="-7.89828" y="-4.2767" width="31.787" height="28.0876" filterUnits="userSpaceOnUse" color-interpolation-filters="sRGB"> <feFlood flood-opacity="0" result="BackgroundImageFix"></feFlood> <feColorMatrix in="SourceAlpha" type="matrix" values="0 0 0 0 0 0 0 0 0 0 0 0 0 0 0 0 0 0 127 0" result="hardAlpha"></feColorMatrix> <feOffset></feOffset> <feGaussianBlur stdDeviation="4.16667"></feGaussianBlur> <feColorMatrix type="matrix" values="0 0 0 0 0 0 0 0 0 0 0 0 0 0 0 0 0 0 0.25 0"></feColorMatrix> <feBlend mode="overlay" in2="BackgroundImageFix" result="effect1_dropShadow_76_21656"></feBlend> <feBlend mode="normal" in="SourceGraphic" in2="effect1_dropShadow_76_21656" result="shape"></feBlend> </filter> <filter id="filter1_d_76_21656" x="2.49967" y="-7.889" width="21.3888" height="31.6999" filterUnits="userSpaceOnUse" color-interpolation-filters="sRGB"> <feFlood flood-opacity="0" result="BackgroundImageFix"></feFlood> <feColorMatrix in="SourceAlpha" type="matrix" values="0 0 0 0 0 0 0 0 0 0 0 0 0 0 0 0 0 0 127 0" result="hardAlpha"></feColorMatrix> <feOffset></feOffset> <feGaussianBlur stdDeviation="4.16667"></feGaussianBlur> <feColorMatrix type="matrix" values="0 0 0 0 0 0 0 0 0 0 0 0 0 0 0 0 0 0 0.25 0"></feColorMatrix> <feBlend mode="overlay" in2="BackgroundImageFix" result="effect1_dropShadow_76_21656"></feBlend> <feBlend mode="normal" in="SourceGraphic" in2="effect1_dropShadow_76_21656" result="shape"></feBlend> </filter> <linearGradient id="paint0_linear_76_21656" x1="7.99061" y1="0.444336" x2="7.99061" y2="15.4775" gradientUnits="userSpaceOnUse"> <stop stop-color="white"></stop> <stop offset="1" stop-color="white" stop-opacity="0"></stop> </linearGradient> <clipPath id="clip0_76_21656"> <rect width="16" height="16" fill="white"></rect> </clipPath> </defs> </svg> 