<?xml version="1.0" encoding="UTF-8"?> <svg xmlns="http://www.w3.org/2000/svg" width="12" height="12" viewBox="0 0 12 12" fill="none"> <path d="M8.50009 2.99997C8.36748 2.99997 8.24031 3.05265 8.14654 3.14642C8.05277 3.24019 8.00009 3.36736 8.00009 3.49997V7.29497L3.85509 3.14497C3.76094 3.05082 3.63324 2.99792 3.50009 2.99792C3.36694 2.99792 3.23924 3.05082 3.14509 3.14497C3.05094 3.23912 2.99805 3.36682 2.99805 3.49997C2.99805 3.63312 3.05094 3.76082 3.14509 3.85497L7.29509 7.99997H3.50009C3.36748 7.99997 3.24031 8.05265 3.14654 8.14642C3.05277 8.24018 3.00009 8.36736 3.00009 8.49997C3.00009 8.63258 3.05277 8.75976 3.14654 8.85352C3.24031 8.94729 3.36748 8.99997 3.50009 8.99997H8.50009C8.56543 8.99918 8.62998 8.98559 8.69009 8.95997C8.81227 8.90923 8.90935 8.81214 8.96009 8.68997C8.98571 8.62986 8.9993 8.56531 9.00009 8.49997V3.49997C9.00009 3.36736 8.94741 3.24019 8.85365 3.14642C8.75988 3.05265 8.6327 2.99997 8.50009 2.99997Z" fill="#1F2024"></path> </svg> 