<?xml version="1.0" encoding="UTF-8"?> <svg xmlns="http://www.w3.org/2000/svg" width="16" height="16" viewBox="0 0 16 16" fill="none"> <g clip-path="url(#clip0_76_21636)"> <path d="M13.1667 0H2.83333C1.26853 0 0 1.26853 0 2.83333V12.7667C0 14.3315 1.26853 15.6 2.83333 15.6H13.1667C14.7315 15.6 16 14.3315 16 12.7667V2.83333C16 1.26853 14.7315 0 13.1667 0Z" fill="#330000"></path> <path d="M7.7533 9.36147H5.2739L4.76944 10.9285C4.76257 10.9571 4.74594 10.9824 4.72243 11C4.69892 11.0177 4.66999 11.0265 4.64064 11.0251H3.38484C3.31323 11.0251 3.28818 10.9858 3.30971 10.9071L5.45636 4.72467C5.47784 4.66028 5.49932 4.58694 5.52078 4.50464C5.54886 4.36143 5.56323 4.21588 5.56371 4.06995C5.56226 4.05975 5.5632 4.04934 5.56646 4.03956C5.56972 4.02978 5.57521 4.02089 5.5825 4.0136C5.58979 4.00631 5.59867 4.00082 5.60845 3.99755C5.61823 3.99429 5.62864 3.99335 5.63885 3.9948H7.34542C7.39542 3.9948 7.42404 4.0127 7.43129 4.04848L9.86778 10.9178C9.88924 10.9894 9.86776 11.0252 9.80336 11.0251H8.40802C8.38405 11.0278 8.35994 11.0216 8.34019 11.0078C8.32044 10.994 8.3064 10.9734 8.30069 10.95L7.7533 9.36147ZM5.6603 8.00908H7.35617C7.31323 7.86603 7.26314 7.70503 7.20591 7.52607C7.14855 7.3473 7.08773 7.15588 7.02345 6.95184C6.95903 6.74791 6.89462 6.54398 6.83022 6.34004C6.76583 6.13611 6.70681 5.93934 6.65314 5.7497C6.59946 5.5602 6.55116 5.38668 6.50825 5.22915H6.49751C6.43708 5.51903 6.36185 5.80562 6.27212 6.08781C6.17182 6.40981 6.06985 6.73897 5.96619 7.07527C5.86238 7.4117 5.76042 7.72297 5.6603 8.00908H5.6603Z" fill="#FF9A00"></path> <path d="M11.3167 5.13268C11.2072 5.13708 11.0981 5.11832 10.9963 5.07763C10.8946 5.03693 10.8026 4.97523 10.7264 4.89655C10.6503 4.81445 10.5913 4.71814 10.5526 4.61315C10.5139 4.50815 10.4964 4.39655 10.501 4.28475C10.4971 4.17405 10.5166 4.06378 10.5582 3.96113C10.5998 3.85849 10.6626 3.76577 10.7425 3.68904C10.8216 3.61311 10.915 3.55362 11.0172 3.51401C11.1195 3.4744 11.2285 3.45546 11.3382 3.45828C11.5958 3.45828 11.7979 3.5352 11.9446 3.68904C12.0187 3.76899 12.0762 3.86276 12.114 3.96498C12.1517 4.0672 12.1689 4.17586 12.1646 4.28475C12.1691 4.39698 12.151 4.50898 12.1114 4.61408C12.0717 4.71917 12.0114 4.81523 11.9339 4.89655C11.8529 4.97638 11.7562 5.03858 11.65 5.07922C11.5438 5.11986 11.4303 5.13806 11.3167 5.13268ZM10.5761 10.9179V5.7874C10.5761 5.72301 10.6046 5.6908 10.662 5.6908H11.9822C12.0394 5.6908 12.068 5.723 12.068 5.7874V10.9179C12.068 10.9895 12.0394 11.0253 11.9822 11.0253H10.6727C10.6083 11.0253 10.5761 10.9895 10.5761 10.9179V10.9179Z" fill="#FF9A00"></path> </g> <defs> <clipPath id="clip0_76_21636"> <rect width="16" height="16" fill="white"></rect> </clipPath> </defs> </svg> 