<?xml version="1.0" encoding="UTF-8"?> <svg xmlns="http://www.w3.org/2000/svg" width="20" height="14" viewBox="0 0 20 14" fill="none"> <path d="M16.677 6.7757C16.65 6.70415 16.6095 6.63879 16.5579 6.58336L13.7223 3.66909C13.6694 3.61475 13.6066 3.57164 13.5375 3.54223C13.4684 3.51282 13.3944 3.49768 13.3196 3.49768C13.1686 3.49768 13.0237 3.55934 12.9169 3.66909C12.8641 3.72344 12.8221 3.78795 12.7935 3.85896C12.7649 3.92996 12.7502 4.00606 12.7502 4.08292C12.7502 4.23813 12.8102 4.38699 12.9169 4.49674L14.7885 6.41433H2.90063C2.75021 6.41433 2.60596 6.47574 2.4996 6.58504C2.39325 6.69435 2.3335 6.8426 2.3335 6.99718C2.3335 7.15177 2.39325 7.30002 2.4996 7.40932C2.60596 7.51863 2.75021 7.58004 2.90063 7.58004H14.7885L12.9169 9.49762C12.8638 9.55181 12.8216 9.61627 12.7928 9.6873C12.764 9.75832 12.7492 9.8345 12.7492 9.91145C12.7492 9.98839 12.764 10.0646 12.7928 10.1356C12.8216 10.2066 12.8638 10.2711 12.9169 10.3253C12.9697 10.3799 13.0324 10.4233 13.1015 10.4529C13.1706 10.4824 13.2447 10.4977 13.3196 10.4977C13.3945 10.4977 13.4686 10.4824 13.5377 10.4529C13.6068 10.4233 13.6695 10.3799 13.7223 10.3253L16.5579 7.41101C16.6095 7.35558 16.65 7.29021 16.677 7.21867C16.7337 7.07677 16.7337 6.9176 16.677 6.7757Z" fill="#1F2024"></path> </svg> 