<?xml version="1.0" encoding="UTF-8"?> <svg xmlns="http://www.w3.org/2000/svg" width="16" height="16" viewBox="0 0 16 16" fill="none"> <path d="M11.8526 5.80272L10.4508 10.2948C10.4508 9.95077 9.48399 2.5 9.48399 2.5C7.26042 2.5 6.08097 4.10221 5.46224 5.80272L3.75106 10.3046C3.75106 9.98026 3.50937 5.84203 3.50937 5.84203C3.42683 4.94619 3.02403 4.11224 2.37726 3.49812C1.73049 2.884 0.88467 2.53237 0 2.50983L1.81752 13.7941C4.13776 13.7941 5.39456 12.1919 6.0423 10.4914L7.49245 6.65789C7.49245 6.81516 8.45922 13.7941 8.45922 13.7941C9.40799 13.7929 10.3317 13.4845 11.0966 12.9136C11.8614 12.3428 12.4275 11.5391 12.713 10.6192L16 2.5C13.6798 2.5 12.4616 4.10221 11.8429 5.80272H11.8526Z" fill="#1F2024"></path> </svg> 