<?xml version="1.0" encoding="UTF-8"?> <svg xmlns="http://www.w3.org/2000/svg" width="32" height="32" viewBox="0 0 32 32" fill="none"><path d="M6.66797 10.6667V22.5134H12.3912C12.9215 22.5134 16.5735 22.4058 16.5735 19.0715C16.5735 16.9878 15.1402 16.2799 14.4123 16.0698C14.9476 15.8171 16.0132 15.2168 16.0132 13.6084C16.0132 12.7129 15.8857 10.6667 12.2311 10.6667H6.66797ZM19.7153 11.7674V12.848H24.1378V11.7674H19.7153ZM9.26943 12.6879H11.7108C11.9409 12.6879 13.4918 12.5653 13.4918 14.0486C13.4918 15.3169 12.3712 15.4494 11.9109 15.4494H9.26943V12.6879ZM22.0366 13.8285C18.6922 13.8285 17.9943 16.7327 17.9943 17.9909C17.9943 21.7255 21.0561 22.1532 22.0366 22.1532C24.6806 22.1532 25.431 20.4422 25.7387 19.4917H23.8176C23.7426 19.7368 23.1823 20.5323 22.1167 20.5323C20.3307 20.5323 20.1756 19.1365 20.1756 18.5112H25.8588C25.9738 16.3499 25.0283 13.8285 22.0366 13.8285ZM21.9766 15.4494C22.5094 15.4494 22.9396 15.6045 23.1973 15.8897C23.4549 16.1773 23.645 16.5976 23.6975 17.1504H20.1756C20.1856 16.9978 20.2206 16.8227 20.2756 16.6301C20.3307 16.4325 20.4157 16.2449 20.5558 16.0698C20.6959 15.8972 20.891 15.7471 21.1161 15.6295C21.3462 15.5095 21.6314 15.4494 21.9766 15.4494ZM9.26943 17.2304H12.091C12.6513 17.2304 13.9721 17.318 13.9721 18.9314C13.9721 20.4948 12.3086 20.4923 12.051 20.4923H9.26943V17.2304Z" fill="#CAC9CF"></path></svg> 