<?xml version="1.0" encoding="UTF-8"?> <svg xmlns="http://www.w3.org/2000/svg" width="16" height="16" viewBox="0 0 16 16" fill="none"> <path d="M9.05405 12.9522V7.41142C9.05405 6.83269 9.48956 6.36364 10.0268 6.36364L13.0273 6.36364C13.5643 6.36364 14 6.83275 14 7.41142V12.9522C14 13.5309 13.5645 14 13.0273 14H10.0268C9.48972 14 9.05405 13.5309 9.05405 12.9522Z" fill="url(#paint0_linear_76_21682)"></path> <path d="M2 12.9535L2 3.04654C2 2.46857 2.43551 2 2.97273 2H5.97321C6.51028 2 6.94595 2.46855 6.94595 3.04654L6.94595 12.9535C6.94595 13.5314 6.51044 14 5.97321 14H2.97273C2.43567 14 2 13.5314 2 12.9535Z" fill="url(#paint1_linear_76_21682)"></path> <defs> <linearGradient id="paint0_linear_76_21682" x1="2" y1="14" x2="2" y2="2" gradientUnits="userSpaceOnUse"> <stop stop-color="#0091E6"></stop> <stop offset="1" stop-color="#0079BF"></stop> </linearGradient> <linearGradient id="paint1_linear_76_21682" x1="2" y1="14" x2="2" y2="2" gradientUnits="userSpaceOnUse"> <stop stop-color="#0091E6"></stop> <stop offset="1" stop-color="#0079BF"></stop> </linearGradient> </defs> </svg> 