<?xml version="1.0" encoding="UTF-8"?> <svg xmlns="http://www.w3.org/2000/svg" width="12" height="12" viewBox="0 0 12 12" fill="none"><path d="M3.00009 3.49792C3.00009 3.63053 3.05277 3.75771 3.14654 3.85148C3.24031 3.94525 3.36748 3.99792 3.50009 3.99792H7.29509L3.14509 8.14292C3.05094 8.23708 2.99805 8.36477 2.99805 8.49792C2.99805 8.63108 3.05094 8.75877 3.14509 8.85292C3.23924 8.94708 3.36694 8.99997 3.50009 8.99997C3.63324 8.99997 3.76094 8.94708 3.85509 8.85292L8.00009 4.70292V8.49792C8.00009 8.63053 8.05277 8.75771 8.14654 8.85148C8.24031 8.94525 8.36748 8.99792 8.50009 8.99792C8.6327 8.99792 8.75988 8.94525 8.85365 8.85148C8.94741 8.75771 9.00009 8.63053 9.00009 8.49792V3.49792C8.9993 3.43259 8.98571 3.36804 8.96009 3.30793C8.90935 3.18575 8.81227 3.08866 8.69009 3.03792C8.62998 3.0123 8.56543 2.99871 8.50009 2.99792H3.50009C3.36748 2.99792 3.24031 3.0506 3.14654 3.14437C3.05277 3.23814 3.00009 3.36532 3.00009 3.49792Z" fill="#201F24"></path></svg> 