<?xml version="1.0" encoding="UTF-8"?> <svg xmlns="http://www.w3.org/2000/svg" width="22" height="22" viewBox="0 0 22 22" fill="none"> <path d="M12.8209 11.4984L18.7229 5.6058C18.8993 5.42939 18.9984 5.19013 18.9984 4.94065C18.9984 4.69118 18.8993 4.45192 18.7229 4.27551C18.5465 4.0991 18.3072 4 18.0577 4C17.8083 4 17.569 4.0991 17.3926 4.27551L11.5 10.1775L5.6074 4.27551C5.43099 4.0991 5.19173 4 4.94225 4C4.69278 4 4.45352 4.0991 4.27711 4.27551C4.1007 4.45192 4.0016 4.69118 4.0016 4.94065C4.0016 5.19013 4.1007 5.42939 4.27711 5.6058L10.1791 11.4984L4.27711 17.391C4.1893 17.4781 4.11961 17.5817 4.07205 17.6959C4.02449 17.81 4 17.9325 4 18.0561C4 18.1798 4.02449 18.3023 4.07205 18.4164C4.11961 18.5306 4.1893 18.6342 4.27711 18.7213C4.3642 18.8091 4.46781 18.8788 4.58197 18.9264C4.69613 18.9739 4.81858 18.9984 4.94225 18.9984C5.06592 18.9984 5.18837 18.9739 5.30253 18.9264C5.41669 18.8788 5.52031 18.8091 5.6074 18.7213L11.5 12.8193L17.3926 18.7213C17.4797 18.8091 17.5833 18.8788 17.6975 18.9264C17.8116 18.9739 17.9341 18.9984 18.0577 18.9984C18.1814 18.9984 18.3039 18.9739 18.418 18.9264C18.5322 18.8788 18.6358 18.8091 18.7229 18.7213C18.8107 18.6342 18.8804 18.5306 18.928 18.4164C18.9755 18.3023 19 18.1798 19 18.0561C19 17.9325 18.9755 17.81 18.928 17.6959C18.8804 17.5817 18.8107 17.4781 18.7229 17.391L12.8209 11.4984Z" fill="black"></path> </svg> 